<svg width="500" height="500" viewBox="0 0 500 500" fill="none" xmlns="http://www.w3.org/2000/svg">
<g clip-path="url(#clip0_1_280)">
<rect x="500" width="500" height="500" rx="250" transform="rotate(90 500 0)" fill="white"/>
<rect x="613" width="240" height="240" transform="rotate(90 613 0)" fill="#0120CC"/>
<rect x="613" y="260" width="240" height="240" transform="rotate(90 613 260)" fill="#E1513A"/>
<rect x="353" width="500" height="240" transform="rotate(90 353 0)" fill="#E1513A"/>
<path d="M231.75 299V325.5C231.75 326.333 232.167 326.75 233 326.75H243C243.833 326.75 244.25 326.333 244.25 325.5V280.5L224.5 271.75C223 271.25 220.917 270.417 218.25 269.25C215.583 267.917 213.167 266 211 263.5C209 261 208 257.583 208 253.25V196.25C208 189.25 210.167 183.667 214.5 179.5C218.833 175.167 224.5 173 231.5 173H244.5C251.5 173 257.167 175.167 261.5 179.5C265.833 183.667 268 189.25 268 196.25V233.25L244.25 231.25V197.5C244.25 196.667 243.833 196.25 243 196.25H233C232.167 196.25 231.75 196.667 231.75 197.5V249.75L251.5 258.5C253 259.167 255.083 260.083 257.75 261.25C260.417 262.417 262.75 264.25 264.75 266.75C266.917 269.25 268 272.667 268 277V326.75C268 333.75 265.833 339.417 261.5 343.75C257.167 347.917 251.5 350 244.5 350H231.5C224.5 350 218.833 347.917 214.5 343.75C210.167 339.417 208 333.75 208 326.75V299H231.75Z" fill="white"/>
<rect x="93" y="-88" width="240" height="240" transform="rotate(90 93 -88)" fill="#E1513A"/>
<rect x="93" y="172" width="282" height="240" transform="rotate(90 93 172)" fill="#0120CC"/>
</g>
<defs>
<clipPath id="clip0_1_280">
<rect x="500" width="500" height="500" rx="250" transform="rotate(90 500 0)" fill="white"/>
</clipPath>
</defs>
</svg>
